<?xml version="1.0" encoding="UTF-8"?>
<svg xmlns="http://www.w3.org/2000/svg" xmlns:xlink="http://www.w3.org/1999/xlink" width="26px" height="px" viewBox="0 0 26 26" version="1.1">
<g id="surface1">
<path style=" stroke:none;fill-rule:nonzero;fill:rgb(0%,0%,0%);fill-opacity:1;" d="M 13 0.8125 C 6.269531 0.8125 0.8125 6.269531 0.8125 13 C 0.8125 19.730469 6.269531 25.1875 13 25.1875 C 19.730469 25.1875 25.1875 19.730469 25.1875 13 C 25.1875 6.269531 19.730469 0.8125 13 0.8125 Z M 13 24.171875 C 6.839844 24.171875 1.828125 19.160156 1.828125 13 C 1.828125 6.839844 6.839844 1.828125 13 1.828125 C 19.160156 1.828125 24.171875 6.839844 24.171875 13 C 24.171875 19.160156 19.160156 24.171875 13 24.171875 Z M 13 24.171875 "/>
<path style=" stroke:none;fill-rule:nonzero;fill:rgb(0%,0%,0%);fill-opacity:1;" d="M 18.113281 16.363281 C 14.816406 18.660156 11.164062 18.648438 7.886719 16.363281 C 7.492188 16.089844 7.136719 16.5625 7.40625 17.003906 C 8.402344 18.648438 10.417969 20.113281 13 20.113281 C 15.582031 20.113281 17.597656 18.648438 18.59375 17.003906 C 18.863281 16.5625 18.507812 16.089844 18.113281 16.363281 "/>
<path style=" stroke:none;fill-rule:nonzero;fill:rgb(0%,0%,0%);fill-opacity:1;" d="M 11.078125 11.289062 C 11.273438 11.496094 11.664062 11.117188 11.589844 10.910156 C 10.832031 8.832031 9.695312 7.792969 8.558594 7.792969 C 7.417969 7.792969 6.28125 8.832031 5.527344 10.910156 C 5.453125 11.117188 5.839844 11.496094 6.035156 11.289062 C 6.769531 10.519531 7.644531 10.210938 8.558594 10.210938 C 9.472656 10.210938 10.347656 10.519531 11.078125 11.289062 "/>
<path style=" stroke:none;fill-rule:nonzero;fill:rgb(0%,0%,0%);fill-opacity:1;" d="M 17.441406 7.792969 C 16.304688 7.792969 15.167969 8.832031 14.410156 10.910156 C 14.335938 11.117188 14.726562 11.496094 14.921875 11.289062 C 15.652344 10.519531 16.527344 10.210938 17.441406 10.210938 C 18.355469 10.210938 19.230469 10.519531 19.964844 11.289062 C 20.160156 11.496094 20.546875 11.117188 20.472656 10.910156 C 19.71875 8.832031 18.578125 7.792969 17.441406 7.792969 "/>
</g>
</svg>
